<svg xmlns="http://www.w3.org/2000/svg">
  <!-- Existing social icons -->
  <symbol id="github" fill-rule="evenodd" clip-rule="evenodd" stroke-linejoin="round" stroke-miterlimit="1.414">
    <path d="M8 0C3.58 0 0 3.582 0 8c0 3.535 2.292 6.533 5.47 7.59.4.075.547-.172.547-.385 0-.19-.007-.693-.01-1.36-2.226.483-2.695-1.073-2.695-1.073-.364-.924-.89-1.17-.89-1.17-.725-.496.056-.486.056-.486.803.056 1.225.824 1.225.824.714 1.223 1.873.87 2.33.665.072-.517.278-.87.507-1.07-1.777-.2-3.644-.888-3.644-3.953 0-.873.31-1.587.823-2.147-.083-.202-.358-1.015.077-2.117 0 0 .672-.215 2.2.82.638-.178 1.323-.266 2.003-.27.68.004 1.364.092 2.003.27 1.527-1.035 2.198-.82 2.198-.82.437 1.102.163 1.915.08 2.117.513.56.823 1.274.823 2.147 0 3.073-1.87 3.75-3.653 3.947.287.246.543.735.543 1.48 0 1.07-.01 1.933-.01 2.195 0 .215.144.463.55.385C13.71 14.53 16 11.534 16 8c0-4.418-3.582-8-8-8"/>
  </symbol>

  <!-- Add Discord icon -->
  <symbol id="discord" fill-rule="evenodd" clip-rule="evenodd" stroke-linejoin="round" stroke-miterlimit="1.414">
    <path d="M13.545 2.907a13.227 13.227 0 0 0-3.257-1.011.05.05 0 0 0-.052.025c-.141.25-.297.577-.406.833a12.19 12.19 0 0 0-3.658 0 8.258 8.258 0 0 0-.412-.833.051.051 0 0 0-.052-.025c-1.125.194-2.22.534-3.257 1.011a.041.041 0 0 0-.021.018C.356 6.024-.213 9.047.066 12.032c.001.014.01.028.021.037a13.276 13.276 0 0 0 3.995 2.02.05.05 0 0 0 .056-.019c.308-.42.582-.863.818-1.329a.05.05 0 0 0-.01-.059.051.051 0 0 0-.018-.011 8.875 8.875 0 0 1-1.248-.595.05.05 0 0 1-.02-.066.051.051 0 0 1 .015-.019c.084-.063.168-.129.248-.195a.05.05 0 0 1 .051-.007c2.619 1.196 5.454 1.196 8.041 0a.052.052 0 0 1 .053.007c.08.066.164.132.248.195a.051.051 0 0 1-.004.085 8.254 8.254 0 0 1-1.249.594.05.05 0 0 0-.03.03.052.052 0 0 0 .003.041c.24.465.515.909.817 1.329a.05.05 0 0 0 .056.019 13.235 13.235 0 0 0 4.001-2.02.049.049 0 0 0 .021-.037c.334-3.451-.559-6.449-2.366-9.106a.034.034 0 0 0-.02-.019Zm-8.198 7.307c-.789 0-1.438-.724-1.438-1.612 0-.889.637-1.613 1.438-1.613.807 0 1.45.73 1.438 1.613 0 .888-.637 1.612-1.438 1.612Zm5.316 0c-.788 0-1.438-.724-1.438-1.612 0-.889.637-1.613 1.438-1.613.807 0 1.451.73 1.438 1.613 0 .888-.631 1.612-1.438 1.612Z"/>
  </symbol>

  <!-- RSS icon -->
  <symbol id="rss" fill-rule="evenodd" clip-rule="evenodd" stroke-linejoin="round" stroke-miterlimit="1.414">
    <path d="M12.8 16C12.8 8.978 7.022 3.2 0 3.2V0c8.777 0 16 7.223 16 16h-3.2zM2.194 11.61c1.21 0 2.195.985 2.195 2.196 0 1.21-.985 2.195-2.196 2.195C.984 16 0 15.015 0 13.806c0-1.21.983-2.195 2.194-2.195zM10.606 16h-3.11c0-4.113-3.383-7.497-7.496-7.497v-3.11c5.818 0 10.606 4.79 10.606 10.607z"/>
  </symbol>

  <!-- Add any other social icons you need -->
</svg> 